REM DIRINDEX 1\2\6,1\2\7,1\2\8,1\2\9,1\3\10,1\3\11,1\4\12,1\4\13,1\4\14,1\5\15,1\5\16,1\5\17
REM DIRNAME cjc020,folder01,folder02,folder03,folder04,folder05,folder06,folder07,folder08,folder09,folder10,folder11,folder12,folder13,folder14,folder15,folder16
TITLE ""
FILE "1900_2_sec06_0516_0530.mp3" MP3
  TRACK 01 AUDIO
    TITLE "0:"
    INDEX 01 00:00:00
  TRACK 02 AUDIO
    TITLE "13:cjc020_3139"
    INDEX 01 00:00:17
  TRACK 03 AUDIO
    TITLE "0:"
    INDEX 01 00:01:42
  TRACK 04 AUDIO
    TITLE "14:cjc020_3140"
    INDEX 01 00:01:48
  TRACK 05 AUDIO
    TITLE "0:"
    INDEX 01 00:02:65
  TRACK 06 AUDIO
    TITLE "13:cjc020_3141"
    INDEX 01 00:03:45
  TRACK 07 AUDIO
    TITLE "0:"
    INDEX 01 00:04:62
  TRACK 08 AUDIO
    TITLE "14:cjc020_3142"
    INDEX 01 00:04:64
  TRACK 09 AUDIO
    TITLE "0:"
    INDEX 01 00:07:23
  TRACK 10 AUDIO
    TITLE "13:cjc020_3143"
    INDEX 01 00:08:03
  TRACK 11 AUDIO
    TITLE "0:"
    INDEX 01 00:09:12
  TRACK 12 AUDIO
    TITLE "14:cjc020_3144"
    INDEX 01 00:09:14
  TRACK 13 AUDIO
    TITLE "0:"
    INDEX 01 00:11:54
  TRACK 14 AUDIO
    TITLE "13:cjc020_3145"
    INDEX 01 00:12:34
  TRACK 15 AUDIO
    TITLE "0:"
    INDEX 01 00:13:33
  TRACK 16 AUDIO
    TITLE "14:cjc020_3146"
    INDEX 01 00:13:41
  TRACK 17 AUDIO
    TITLE "0:"
    INDEX 01 00:15:56
  TRACK 18 AUDIO
    TITLE "13:cjc020_3147"
    INDEX 01 00:16:34
  TRACK 19 AUDIO
    TITLE "0:"
    INDEX 01 00:17:39
  TRACK 20 AUDIO
    TITLE "14:cjc020_3148"
    INDEX 01 00:17:43
  TRACK 21 AUDIO
    TITLE "0:"
    INDEX 01 00:18:52
  TRACK 22 AUDIO
    TITLE "13:cjc020_3149"
    INDEX 01 00:19:32
  TRACK 23 AUDIO
    TITLE "0:"
    INDEX 01 00:20:57
  TRACK 24 AUDIO
    TITLE "14:cjc020_3150"
    INDEX 01 00:20:59
  TRACK 25 AUDIO
    TITLE "0:"
    INDEX 01 00:24:06
  TRACK 26 AUDIO
    TITLE "13:cjc020_3151"
    INDEX 01 00:24:61
  TRACK 27 AUDIO
    TITLE "0:"
    INDEX 01 00:26:03
  TRACK 28 AUDIO
    TITLE "14:cjc020_3152"
    INDEX 01 00:26:07
  TRACK 29 AUDIO
    TITLE "0:"
    INDEX 01 00:28:13
  TRACK 30 AUDIO
    TITLE "13:cjc020_3153"
    INDEX 01 00:28:66
  TRACK 31 AUDIO
    TITLE "0:"
    INDEX 01 00:29:74
  TRACK 32 AUDIO
    TITLE "14:cjc020_3154"
    INDEX 01 00:30:01
  TRACK 33 AUDIO
    TITLE "0:"
    INDEX 01 00:32:29
  TRACK 34 AUDIO
    TITLE "13:cjc020_3155"
    INDEX 01 00:33:09
  TRACK 35 AUDIO
    TITLE "0:"
    INDEX 01 00:34:24
  TRACK 36 AUDIO
    TITLE "14:cjc020_3156"
    INDEX 01 00:34:28
  TRACK 37 AUDIO
    TITLE "0:"
    INDEX 01 00:37:08
  TRACK 38 AUDIO
    TITLE "13:cjc020_3157"
    INDEX 01 00:37:63
  TRACK 39 AUDIO
    TITLE "0:"
    INDEX 01 00:39:09
  TRACK 40 AUDIO
    TITLE "14:cjc020_3158"
    INDEX 01 00:39:11
  TRACK 41 AUDIO
    TITLE "0:"
    INDEX 01 00:42:29
  TRACK 42 AUDIO
    TITLE "13:cjc020_3159"
    INDEX 01 00:43:09
  TRACK 43 AUDIO
    TITLE "0:"
    INDEX 01 00:44:14
  TRACK 44 AUDIO
    TITLE "14:cjc020_3160"
    INDEX 01 00:44:16
  TRACK 45 AUDIO
    TITLE "0:"
    INDEX 01 00:45:39
  TRACK 46 AUDIO
    TITLE "13:cjc020_3161"
    INDEX 01 00:46:19
  TRACK 47 AUDIO
    TITLE "0:"
    INDEX 01 00:47:34
  TRACK 48 AUDIO
    TITLE "14:cjc020_3162"
    INDEX 01 00:47:36
  TRACK 49 AUDIO
    TITLE "0:"
    INDEX 01 00:53:23
  TRACK 50 AUDIO
    TITLE "13:cjc020_3163"
    INDEX 01 00:54:03
  TRACK 51 AUDIO
    TITLE "0:"
    INDEX 01 00:55:22
  TRACK 52 AUDIO
    TITLE "14:cjc020_3164"
    INDEX 01 00:55:26
  TRACK 53 AUDIO
    TITLE "0:"
    INDEX 01 00:58:54
  TRACK 54 AUDIO
    TITLE "13:cjc020_3165"
    INDEX 01 00:59:32
  TRACK 55 AUDIO
    TITLE "0:"
    INDEX 01 01:00:41
  TRACK 56 AUDIO
    TITLE "14:cjc020_3166"
    INDEX 01 01:00:45
  TRACK 57 AUDIO
    TITLE "0:"
    INDEX 01 01:01:60
  TRACK 58 AUDIO
    TITLE "13:cjc020_3167"
    INDEX 01 01:02:40
  TRACK 59 AUDIO
    TITLE "0:"
    INDEX 01 01:03:65
  TRACK 60 AUDIO
    TITLE "14:cjc020_3168"
    INDEX 01 01:03:69
  TRACK 61 AUDIO
    TITLE "0:"
    INDEX 01 01:06:43
